{"title":"The Best Intentions 1992 BDRip 720p Legendado PT-BR","uid":14993553,"size":9380474699,"categoryP":"video","categoryS":"hd___movies","magnet":"?xt=urn:btih:9813e2d98e10ecd08f379943d41dd1520d49c856&amp;dn=The+Best+Intentions+1992+BDRip+720p+Legendado+PT-BR&amp;tr=udp%3A%2F%2Ftracker.leechers-paradise.org%3A6969&amp;tr=udp%3A%2F%2Fzer0day.ch%3A1337&amp;tr=udp%3A%2F%2Fopen.demonii.com%3A1337&amp;tr=udp%3A%2F%2Ftracker.coppersurfer.tk%3A6969&amp;tr=udp%3A%2F%2Fexodus.desync.com%3A6969","seeders":3,"leechers":0,"uploader":null,"files":1,"time":1466339847,"description":"Audio: Swedish\r\nLegendas/subtitles: Português / English (MKV track)\r\n\r\n=====================================================\r\n\r\nThe story of Ingmar Bergman's parents. In 1909, poor, idealistic theology student Henrik Bergman falls in love with Anna Åkerbloom, the intelligent, educated daughter of a rich family in Uppsala. After their wedding Henrik becomes a priest in the north of Sweden. After a few years Anna can't stand living in the rural county with the uncouth people. She returns to Uppsala, Henrik stays in the north. \r\n\r\n======================================================\r\nA história dos pais de Ingmar Bergman. Em 1909, o miserável e idealista estudante de teologia Henrik Bergman apaixona-se por Anna Akerbloom, a filha inteligente e educada de uma família em Uppsala. Após o casamento, Henrik torna-se pastor no norte da Suécia. Anos depois, Anna não suporta viver no ambiente rural com pessoas rudes. Ela volta a Uppsala, Henrik permanece no norte.\r\n\r\n=======================================================\r\n\r\nVideo\r\nID                             : 1\r\nFormat                         : AVC\r\nFormat/Info                    : Advanced Video Codec\r\nFormat profile                 :   \r\nFormat settings, CABAC         : Yes\r\nFormat settings, ReFrames      : 5 frames\r\nCodec ID                       : V_MPEG4/ISO/AVC\r\nDuration                       : 3h 1mn\r\nBit rate                       : 6 512 Kbps\r\nWidth                          : 1 280 pixels\r\nHeight                         : 720 pixels\r\nDisplay aspect ratio           : 16:9\r\nFrame rate mode                : Constant\r\nFrame rate                     : 23.976 fps\r\nColor space                    : YUV\r\nChroma subsampling             : 4:2:0\r\nBit depth                      : 8 bits\r\nScan type                      : Progressive\r\nBits/(Pixel*Frame)             : 0.295\r\nStream size                    : 8.08 GiB (92%)\r\n\r\nAudio\r\nID                             : 2\r\nFormat                         : AC-3\r\nFormat/Info                    : Audio Coding 3\r\nMode extension                 : CM (complete main)\r\nFormat settings, Endianness    : Big\r\nCodec ID                       : A_AC3\r\nDuration                       : 3h 1mn\r\nBit rate mode                  : Constant\r\nBit rate                       : 384 Kbps\r\nChannel(s)                     : 2 channels\r\nChannel positions              : Front: L R\r\nSampling rate                  : 48.0 KHz\r\nBit depth                      : 16 bits\r\nCompression mode               : Lossy\r\nStream size                    : 498 MiB (6%)\r\nLanguage                       : Swedish\r\nDefault                        : Yes\r\nForced                         : No\r\n\r\nText #1\r\nID                             : 3\r\nFormat                         : UTF-8\r\nCodec ID                       : S_TEXT/UTF8\r\nCodec ID/Info                  : UTF-8 Plain Text\r\nLanguage                       : Portuguese\r\nDefault                        : Yes\r\nForced                         : No\r\n\r\nText #2\r\nID                             : 4\r\nFormat                         : UTF-8\r\nCodec ID                       : S_TEXT/UTF8\r\nCodec ID/Info                  : UTF-8 Plain Text\r\nLanguage                       : English\r\nDefault                        : No\r\nForced                         : No\r\n\r\nMenu\r\n00:00:00.000                   : en:00:00:00.000\r\n00:14:58.898                   : en:00:14:58.898\r\n00:33:24.836                   : en:00:33:24.836\r\n00:48:03.964                   : en:00:48:03.964\r\n01:01:15.255                   : en:01:01:15.255\r\n01:19:58.252                   : en:01:19:58.252\r\n01:34:55.690                   : en:01:34:55.690\r\n01:49:44.119                   : en:01:49:44.119\r\n02:04:53.319                   : en:02:04:53.319\r\n02:21:45.789                   : en:02:21:45.789\r\n02:40:50.432                   : en:02:40:50.432\r\n02:58:49.010                   : en:02:58:49.010","torrent":{"xt":"urn:btih:9813e2d98e10ecd08f379943d41dd1520d49c856","amp;dn":"The+Best+Intentions+1992+BDRip+720p+Legendado+PT-BR","amp;tr":["udp%3A%2F%2Ftracker.leechers-paradise.org%3A6969","udp%3A%2F%2Fzer0day.ch%3A1337","udp%3A%2F%2Fopen.demonii.com%3A1337","udp%3A%2F%2Ftracker.coppersurfer.tk%3A6969","udp%3A%2F%2Fexodus.desync.com%3A6969"],"infoHash":"9813e2d98e10ecd08f379943d41dd1520d49c856","infoHashBuffer":{"type":"Buffer","data":[152,19,226,217,142,16,236,208,143,55,153,67,212,29,209,82,13,73,200,86]},"announce":[],"urlList":[]}}